<svg width="40" height="40" fill="none" xmlns="http://www.w3.org/2000/svg"><path fill-rule="evenodd" clip-rule="evenodd" d="M15.6 9.4c1.14-.05 1.5-.07 4.4-.07 2.9 0 3.26.02 4.4.07a7.7 7.7 0 0 1 2.59.5 5.48 5.48 0 0 1 3.12 3.12c.26.67.44 1.45.5 2.58.04 1.14.06 1.5.06 4.4 0 2.9-.02 3.26-.07 4.4a7.9 7.9 0 0 1-.5 2.59 5.48 5.48 0 0 1-3.12 3.12c-.67.26-1.45.44-2.58.5-1.14.04-1.5.06-4.4.06-2.9 0-3.26-.02-4.4-.07a7.84 7.84 0 0 1-2.59-.5 5.48 5.48 0 0 1-3.12-3.12 7.84 7.84 0 0 1-.5-2.58c-.04-1.14-.06-1.5-.06-4.4 0-2.9.02-3.26.07-4.4a7.8 7.8 0 0 1 .5-2.59 5.48 5.48 0 0 1 3.12-3.12 7.83 7.83 0 0 1 2.58-.5Zm4.05 1.86h-.6c-2 0-2.38 0-3.36.05a5.9 5.9 0 0 0-1.98.37 3.49 3.49 0 0 0-2.03 2.03 5.9 5.9 0 0 0-.36 1.98 74.38 74.38 0 0 0-.06 4.3c0 2.85 0 3.2.06 4.32a5.9 5.9 0 0 0 .37 1.98c.19.5.42.85.8 1.22.37.38.72.6 1.22.8.38.15.94.32 1.98.37 1.13.05 1.46.06 4.31.06 2.85 0 3.19-.01 4.31-.06a5.89 5.89 0 0 0 1.98-.37c.5-.2.85-.42 1.23-.8.37-.37.6-.73.8-1.22.14-.38.32-.94.36-1.98.05-1.13.07-1.47.07-4.31 0-2.85-.02-3.19-.07-4.31a5.9 5.9 0 0 0-.36-1.98c-.2-.5-.43-.85-.8-1.23a3.3 3.3 0 0 0-1.23-.8 5.9 5.9 0 0 0-1.98-.36 74.59 74.59 0 0 0-4.3-.06h-.36ZM14.52 20a5.48 5.48 0 1 1 10.96 0 5.48 5.48 0 0 1-10.96 0Zm9.04 0a3.56 3.56 0 1 0-7.11 0 3.56 3.56 0 0 0 7.1 0Zm.86-5.7c0-.7.57-1.27 1.27-1.27a1.28 1.28 0 1 1-1.28 1.28Z" fill="#1E2E36"/></svg>