<svg width="100" height="100" fill="none" xmlns="http://www.w3.org/2000/svg"><path d="M75.9 52.7H24.1a4.5 4.5 0 0 1-4.5-4.5V15.6a4.5 4.5 0 0 1 4.5-4.5h51.8a4.5 4.5 0 0 1 4.5 4.5v32.5a4.5 4.5 0 0 1-4.5 4.5ZM24.1 13.5c-1.2 0-2.2 1-2.2 2.1v32.5c0 1.2 1 2.2 2.2 2.2h51.8c1.2 0 2.2-1 2.2-2.1V15.5c0-1.2-1-2.1-2.2-2.1H24.1Z" fill="#1E2E36"/><path d="M75.9 81.9H24.1a4.5 4.5 0 0 1-4.5-4.5V54.8a4.5 4.5 0 0 1 4.5-4.5h51.8a4.5 4.5 0 0 1 4.5 4.5v22.6a4.5 4.5 0 0 1-4.5 4.5ZM24.1 52.6c-1.2 0-2.2 1-2.2 2.2v22.6c0 1.2 1 2.2 2.2 2.2h51.8c1.2 0 2.2-1 2.2-2.2V54.8c0-1.2-1-2.1-2.2-2.1H24.1Z" fill="#1E2E36"/><path d="M95.5 81.9h-13a4.5 4.5 0 0 1-4.4-4.5V37.8a4.5 4.5 0 0 1 4.5-4.5h12.9a4.5 4.5 0 0 1 4.5 4.5v39.6a4.5 4.5 0 0 1-4.5 4.5Zm-13-46.2c-1.1 0-2.1 1-2.1 2.1v39.6c0 1.2 1 2.2 2.2 2.2h12.9c1.2 0 2.1-1 2.2-2.2V37.8c0-1.1-1-2.1-2.2-2.1h-13Zm-65 46.2h-13A4.5 4.5 0 0 1 0 77.4V37.8a4.5 4.5 0 0 1 4.5-4.5h13a4.5 4.5 0 0 1 4.4 4.5v39.6a4.5 4.5 0 0 1-4.5 4.5Zm-13-46.2c-1.2 0-2.2 1-2.2 2.1v39.6c0 1.2 1 2.2 2.2 2.2h13c1.1 0 2.1-1 2.1-2.2V37.8c0-1.1-1-2.1-2.2-2.1H4.5Z" fill="#1E2E36"/><path d="M79.2 67.3H20.8a1.2 1.2 0 0 1 0-2.4h58.4a1.2 1.2 0 0 1 0 2.4ZM11 88.9a4.2 4.2 0 0 1-4.1-3.2L5.7 81a1.2 1.2 0 0 1 1.1-1.4h8.3a1.2 1.2 0 0 1 1.1 1.4l-1.1 4.7a4.2 4.2 0 0 1-4.1 3.2Zm-2.7-7 .8 3.2a1.9 1.9 0 0 0 3.7 0l.8-3.2H8.3Zm80.7 7a4.2 4.2 0 0 1-4-3.2L83.7 81a1.2 1.2 0 0 1 1.1-1.4h8.3a1.2 1.2 0 0 1 1.1 1.4L93 85.7a4.2 4.2 0 0 1-4 3.2Zm-2.6-7 .8 3.2a1.9 1.9 0 0 0 3.7 0l.8-3.2h-5.3Z" fill="#1E2E36"/></svg>