<svg width="100" height="100" fill="none" xmlns="http://www.w3.org/2000/svg"><g clip-path="url(#a)" fill="#44C697"><path d="M84.7 33.8H15.3c-.6 0-1.2-.6-1.2-1.2V8.2c0-.6.6-1.1 1.2-1.1h69.4c.6 0 1.2.5 1.2 1.2v24.3c0 .6-.6 1.2-1.2 1.2Zm-68.2-2.4h67v-22h-67v22Z"/><path d="M79.3 33.8H20.7c-.6 0-1.2-.6-1.2-1.2v-19c0-.6.6-1.1 1.2-1.1h58.6c.7 0 1.2.5 1.2 1.1v19c0 .6-.5 1.2-1.2 1.2Zm-57.4-2.4H78V14.8H22v16.6Z"/><path d="M46.5 33.8H24.2a4.7 4.7 0 0 1-4.7-4.7V17c0-2.5 2.1-4.6 4.7-4.6h22.3c2.6 0 4.7 2 4.7 4.7V29c0 2.6-2.1 4.7-4.7 4.7Zm-22.3-19a2.4 2.4 0 0 0-2.3 2.4V29c0 1.3 1 2.3 2.3 2.3h22.3c1.3 0 2.3-1 2.3-2.3V17c0-1.2-1-2.3-2.3-2.3H24.2Z"/><path d="M75.8 33.8H53.5a4.7 4.7 0 0 1-4.7-4.7V17c0-2.5 2.1-4.6 4.7-4.6h22.3c2.6 0 4.7 2 4.7 4.7V29c0 2.6-2.1 4.7-4.7 4.7Zm-22.3-19a2.4 2.4 0 0 0-2.3 2.4V29c0 1.3 1 2.3 2.3 2.3h22.3c1.3 0 2.3-1 2.3-2.3V17c0-1.2-1-2.3-2.3-2.3H53.5Z"/><path d="M85.5 93h-71a4.7 4.7 0 0 1-4.7-4.8v-52c0-2.7 2-4.8 4.7-4.8h71c2.6 0 4.7 2.1 4.7 4.7v52.1c0 2.6-2 4.7-4.7 4.7Zm-71-59.2A2.4 2.4 0 0 0 12 36v52.1c0 1.3 1 2.4 2.4 2.4h71c1.3 0 2.4-1 2.4-2.4v-52c0-1.4-1-2.4-2.4-2.4h-71ZM86 9.4H14a4.3 4.3 0 0 1-4.2-4.2v-1C9.8 2 11.7 0 14 0h72c2.3 0 4.2 1.9 4.2 4.3v.9c0 2.3-1.9 4.2-4.2 4.2Zm-72-7c-1 0-1.9.8-1.9 1.9v.9c0 1 .9 1.9 2 1.9H86c1 0 1.9-.9 1.9-2v-.8a2 2 0 0 0-2-2H14Z"/><path d="M86 100H14a4.3 4.3 0 0 1-4.2-4.3v-.9c0-2.3 1.9-4.2 4.2-4.2h72c2.3 0 4.2 1.9 4.2 4.2v1c0 2.3-1.9 4.2-4.2 4.2Zm-72-7c-1 0-1.9.8-1.9 1.8v1c0 1 .9 1.9 2 1.9H86c1 0 1.9-.9 1.9-2v-.9c0-1-.9-1.9-2-1.9H14Z"/></g><defs><clipPath id="a"><path fill="#fff" d="M0 0h100v100H0z"/></clipPath></defs></svg>