<svg width="24" height="24" fill="none" xmlns="http://www.w3.org/2000/svg"><path fill-rule="evenodd" clip-rule="evenodd" d="M5 4.8c-.7 0-1.3.5-1.3 1.2v14c0 .7.6 1.3 1.3 1.3h14c.7 0 1.3-.6 1.3-1.3V6c0-.7-.6-1.3-1.3-1.3H5ZM2.2 6A2.8 2.8 0 0 1 5 3.2h14A2.8 2.8 0 0 1 21.8 6v14a2.8 2.8 0 0 1-2.8 2.8H5A2.8 2.8 0 0 1 2.2 20V6Z" fill="#fff"/><path fill-rule="evenodd" clip-rule="evenodd" d="M16 1.3c.4 0 .8.3.8.7v4a.8.8 0 0 1-1.6 0V2c0-.4.4-.8.8-.8Zm-8 0c.4 0 .8.3.8.7v4a.8.8 0 0 1-1.6 0V2c0-.4.4-.8.8-.8ZM2.2 10c0-.4.4-.8.8-.8h18a.8.8 0 0 1 0 1.6H3a.8.8 0 0 1-.8-.8Z" fill="#fff"/></svg>