<svg width="100" height="100" fill="none" xmlns="http://www.w3.org/2000/svg"><g clip-path="url(#a)" fill="#1E2E36"><path d="M67.8 91.1H32.2c-.7 0-1.2-.5-1.2-1.1V62.7c0-.6.6-1.2 1.2-1.2h35.6c.6 0 1.2.6 1.2 1.2V90c0 .6-.5 1.1-1.2 1.1Zm-34.4-2.3h33.2v-25H33.4v25Z"/><path d="M67.8 96.1H32.2c-.7 0-1.2-.5-1.2-1.1v-5c0-.7.6-1.2 1.2-1.2h35.6c.6 0 1.2.5 1.2 1.2v5c0 .6-.5 1.1-1.2 1.1Zm-34.4-2.3h33.2v-2.7H33.4v2.7Zm34.4-30H32.2c-.7 0-1.2-.4-1.2-1V51.1c0-.7.6-1.2 1.2-1.2h35.6c.6 0 1.2.5 1.2 1.2v11.5c0 .7-.5 1.2-1.2 1.2Zm-34.4-2.3h33.2v-9.2H33.4v9.2Z"/><path d="M50 60.7a3.8 3.8 0 1 1 0-7.6 3.8 3.8 0 0 1 0 7.6Zm0-5.2a1.4 1.4 0 1 0 0 2.9 1.4 1.4 0 0 0 0-3Zm9.9 5.2a3.8 3.8 0 1 1 0-7.6 3.8 3.8 0 0 1 0 7.6Zm0-5.2a1.4 1.4 0 1 0 0 2.9 1.4 1.4 0 0 0 0-3ZM40 60.7a3.8 3.8 0 1 1 0-7.6 3.8 3.8 0 0 1 0 7.6Zm0-5.2a1.4 1.4 0 1 0 0 2.9 1.4 1.4 0 0 0 0-3Zm21 15.2H39.1a2.8 2.8 0 0 1 0-5.5h21.8a2.8 2.8 0 1 1 0 5.5Zm-21.8-3.1a.4.4 0 0 0 0 .8H61a.4.4 0 1 0 0-.8H39.1Z"/><path d="M59.9 87.4H40c-.6 0-1.1-.5-1.1-1.2V69.6c0-.7.5-1.2 1.1-1.2h20c.6 0 1.1.5 1.1 1.2v16.6c0 .7-.5 1.2-1.1 1.2ZM41.3 85h17.4V70.8H41.3V85Zm.9-32.7c-.7 0-1.2-.5-1.2-1.1v-3a1.2 1.2 0 0 1 2.4 0v3c0 .6-.6 1.1-1.2 1.1Zm5.5 0c-.6 0-1.1-.5-1.1-1.1v-1.8H45a1.2 1.2 0 0 1 0-2.3h2.7c.7 0 1.2.5 1.2 1.1v3c0 .6-.5 1.1-1.2 1.1Zm-11 0c-.7 0-1.2-.5-1.2-1.1v-3c0-.6.5-1.1 1.1-1.1h2.8a1.2 1.2 0 0 1 0 2.3h-1.6v1.8c0 .6-.5 1.1-1.2 1.1Zm21.1 0c-.6 0-1.2-.5-1.2-1.1v-3a1.2 1.2 0 0 1 2.4 0v3c0 .6-.5 1.1-1.2 1.1Zm-5.5 0c-.7 0-1.2-.5-1.2-1.1v-3c0-.6.5-1.1 1.1-1.1H55a1.2 1.2 0 0 1 0 2.3h-1.6v1.8c0 .6-.5 1.1-1.1 1.1Zm11 0c-.6 0-1.1-.5-1.1-1.1v-1.8h-1.6a1.2 1.2 0 0 1 0-2.3h2.8c.6 0 1.1.5 1.1 1.1v3c0 .6-.5 1.1-1.1 1.1Zm10.2 4.3h-2.1a1.2 1.2 0 0 1 0-2.3h2a1.2 1.2 0 0 1 0 2.3Z"/><path d="M77 96.1h-9.2c-.7 0-1.2-.5-1.2-1.1V51.2c0-.7.5-1.2 1.2-1.2H77c.7 0 1.2.5 1.2 1.2V95c0 .6-.5 1.1-1.2 1.1Zm-8-2.3h6.8V52.3H69v41.5Z"/><path d="M98.8 74.2H77c-.6 0-1.2-.5-1.2-1.1V51c0-.6.6-1.1 1.2-1.1h21.8c.7 0 1.2.5 1.2 1.2V73c0 .6-.5 1.1-1.2 1.1ZM78.2 72h19.5V52.3H78.2V72Z"/><path d="M90.7 56.6h-5.6a1.2 1.2 0 0 1 0-2.3h5.6a1.2 1.2 0 0 1 0 2.3Zm-71.2 0h-5.6a1.2 1.2 0 0 1 0-2.3h5.6a1.2 1.2 0 0 1 0 2.3Zm79.3 39.5H77c-.6 0-1.2-.5-1.2-1.1V73c0-.6.6-1.1 1.2-1.1h21.8c.7 0 1.2.5 1.2 1.2V95c0 .6-.5 1.1-1.2 1.1Zm-20.6-2.3h19.5V74.2H78.2v19.6Z"/><path d="M90.7 78.5h-5.6a1.2 1.2 0 0 1 0-2.3h5.6a1.2 1.2 0 0 1 0 2.3Zm-74 17.6H1.2C.5 96.1 0 95.6 0 95V62.7c0-.6.5-1.2 1.2-1.2h15.5c.7 0 1.2.6 1.2 1.2V95c0 .6-.6 1.1-1.2 1.1ZM2.3 93.8h13.2V63.9H2.3v29.9Z"/><path d="M32.2 96.1H16.7c-.7 0-1.2-.5-1.2-1.1V62.7c0-.6.5-1.2 1.2-1.2h15.5c.7 0 1.2.6 1.2 1.2V95c0 .6-.5 1.1-1.2 1.1ZM18 93.8h13V63.9H18v29.9Z"/><path d="M20.4 82c-.7 0-1.2-.6-1.2-1.2v-4a1.2 1.2 0 0 1 2.4 0v4c0 .6-.6 1.2-1.2 1.2ZM13 82c-.7 0-1.2-.6-1.2-1.2v-4a1.2 1.2 0 0 1 2.4 0v4c0 .6-.6 1.2-1.2 1.2Zm19.2-18.1h-31c-.7 0-1.2-.5-1.2-1.2V51.2c0-.7.5-1.2 1.2-1.2h31c.7 0 1.2.5 1.2 1.2v11.5c0 .7-.5 1.2-1.2 1.2ZM2.3 61.5H31v-9.2H2.3v9.2Zm64.2-33.7h-33a2.5 2.5 0 0 1-2.5-2.5v-3.4a2.5 2.5 0 0 1 2.5-2.5h33A2.5 2.5 0 0 1 69 22v3.4a2.5 2.5 0 0 1-2.5 2.5Zm-33-6a.1.1 0 0 0-.1.1v3.4l.1.1h33l.1-.1v-3.4a.1.1 0 0 0-.1-.1h-33Z"/><path d="M64 21.8H36a2.5 2.5 0 0 1-1.6-4.4l1-.7A14.7 14.7 0 0 0 41 5c0-.6.5-1.1 1.2-1.1h15.6c.7 0 1.2.5 1.2 1.1a14.7 14.7 0 0 0 5.6 11.6l1 .7a2.5 2.5 0 0 1-1.6 4.5ZM43.3 6.2a17 17 0 0 1-6.5 12.3l-.9.7a.1.1 0 0 0 0 .2H64a.1.1 0 0 0 .1-.2l-.9-.7a17 17 0 0 1-6.5-12.3H43.3Zm51.9 21.6H76.5a3 3 0 0 1 0-5.9h18.7a3 3 0 1 1 0 5.9Zm-18.6-3.5a.6.6 0 0 0 0 1.1h18.6a.6.6 0 0 0 0-1.1H76.5Zm-53.1 3.5H4.8a3 3 0 0 1 0-5.9h18.6a3 3 0 1 1 0 5.9ZM4.8 24.2a.6.6 0 1 0 0 1.2h18.6a.6.6 0 1 0 0-1.1H4.8Z"/><path d="M21.6 24.3h-4.8c-.7 0-1.2-.6-1.2-1.2v-4c0-.7.6-1.2 1.2-1.2h4.8c.6 0 1.1.5 1.1 1.1v4c0 .7-.5 1.2-1.1 1.2ZM18 21.9h2.4v-1.7H18V22Z"/><path d="M22.7 20.2h-7a1.2 1.2 0 0 1 0-2.3h7a1.2 1.2 0 0 1 0 2.3Zm-11.3 4H6.7c-.7 0-1.2-.5-1.2-1.1v-4c0-.7.5-1.2 1.2-1.2h4.7c.7 0 1.2.5 1.2 1.1v4c0 .7-.5 1.2-1.2 1.2ZM7.8 22h2.5v-1.7H7.8V22Z"/><path d="M12.6 20.2h-7a1.2 1.2 0 0 1 0-2.3h7a1.2 1.2 0 1 1 0 2.3Zm9 0h-4.8c-.7 0-1.2-.5-1.2-1.2v-4c0-.6.6-1.2 1.2-1.2h4.8c.6 0 1.1.6 1.1 1.2v4c0 .7-.5 1.2-1.1 1.2ZM18 18h2.4v-1.7H18V18Z"/><path d="M22.7 16.2h-7a1.2 1.2 0 0 1 0-2.3h7a1.2 1.2 0 0 1 0 2.3Zm-11.3 4H6.7c-.7 0-1.2-.5-1.2-1.1v-4c0-.7.5-1.2 1.2-1.2h4.7c.7 0 1.2.5 1.2 1.1v4c0 .7-.5 1.2-1.2 1.2ZM7.8 18h2.5v-1.7H7.8V18Z"/><path d="M12.6 16.2h-7a1.2 1.2 0 0 1 0-2.3h7a1.2 1.2 0 1 1 0 2.3Zm73.3 8a7.6 7.6 0 0 1-6.4-11.5c.2-.4.6-.6 1-.6h10.8c.4 0 .8.2 1 .6a7.6 7.6 0 0 1-6.4 11.6ZM81 14.4a5.2 5.2 0 1 0 9.5 0h-9.4Z"/><path d="M85.8 14.5c-.7 0-1.2-.6-1.2-1.2V5.7a1.2 1.2 0 0 1 2.3 0v7.6c0 .6-.5 1.2-1.1 1.2Z"/><path d="M85.8 14.5a1.2 1.2 0 0 1-.9-2l4-4.1a1.2 1.2 0 0 1 1.7 1.7l-4 4c-.2.2-.5.3-.8.3Z"/><path d="M85.8 14.5c-.3 0-.6-.2-.9-.4l-4-4a1.2 1.2 0 1 1 1.6-1.7l4.1 4a1.2 1.2 0 0 1-.8 2Zm-25 35h-5.7a5.9 5.9 0 0 1-5.8-6v-2.7c0-.7.5-1.2 1.1-1.2h15.2c.6 0 1.1.5 1.1 1.2v2.8a5.9 5.9 0 0 1-5.8 5.8ZM51.7 42v1.6a3.5 3.5 0 0 0 3.5 3.5H61a3.5 3.5 0 0 0 3.5-3.5V42H51.6Z"/><path d="M67.8 44h-2.2a1.2 1.2 0 0 1 0-2.3h2.2a1.2 1.2 0 1 1 0 2.3ZM50 44h-2.3a1.2 1.2 0 0 1 0-2.3H50a1.2 1.2 0 0 1 0 2.3Z"/><path d="M65.6 42H50.4a1.2 1.2 0 0 1-1-1.9c1.7-2.4 5-3.8 8.6-3.8 3.6 0 6.9 1.5 8.5 3.8a1.2 1.2 0 0 1-1 1.9Zm-12-2.4h8.8a10 10 0 0 0-8.8 0Z"/><path d="M56.6 38.7c-.3 0-.6-.1-.8-.3a3.3 3.3 0 1 1 4.4 0 1.2 1.2 0 1 1-1.6-1.7 1 1 0 1 0-1.3 0 1.2 1.2 0 0 1-.7 2ZM13.9 52.3h-5c-.6 0-1.1-.5-1.1-1.1V38.6c0-.7.5-1.2 1.1-1.2h5c.6 0 1.2.5 1.2 1.2v12.6c0 .6-.6 1.1-1.2 1.1ZM10.1 50h2.6V39.7h-2.6V50Z"/><path d="M9 52.3H4c-.6 0-1.2-.5-1.2-1.1V38.6c0-.7.6-1.2 1.2-1.2h5c.6 0 1.1.5 1.1 1.2v12.6c0 .6-.5 1.1-1.2 1.1ZM5.1 50h2.6V39.7H5.2V50Zm19.6 2.3h-2.2a4 4 0 0 1-4-4v-4.1c0-.7.4-1.2 1-1.2h8c.7 0 1.2.5 1.2 1.2v4a4 4 0 0 1-4 4.1Zm-4-7v3c0 1 .8 1.7 1.8 1.7h2.2a1.7 1.7 0 0 0 1.7-1.7v-3h-5.6Z"/><path d="M28.3 45.4H19c-1.2 0-2.2-1-2.2-2.3V42c0-1.2 1-2.2 2.2-2.2h9.3c1.3 0 2.2 1 2.2 2.2v1.2c0 1.3-1 2.2-2.2 2.3ZM19.1 43h9.1v-1h-9v1ZM78 52.3h-6c-.7 0-1.2-.5-1.2-1.1v-8.3c0-.6.5-1.2 1.1-1.2h6c.7 0 1.2.6 1.2 1.2v8.3c0 .6-.5 1.1-1.1 1.1ZM73 50h3.7v-5.9H73V50Z"/><path d="M78 44h-6c-.7 0-1.2-.4-1.2-1v-3.7c0-.6.5-1.2 1.1-1.2h6c.7 0 1.2.6 1.2 1.2V43c0 .7-.5 1.2-1.1 1.2Zm-5-2.2h3.7v-1.2H73v1.3Zm19.3 6.7c-1.9 0-3.4-1.9-3.4-4.2 0-2.4 1.5-4.2 3.4-4.2 2 0 3.4 1.8 3.4 4.2 0 2.3-1.5 4.2-3.4 4.2Zm0-6c-.5 0-1 .7-1 1.8 0 1 .5 1.8 1 1.8s1.1-.8 1.1-1.8-.6-1.9-1-1.9Z"/><path d="M92.4 42.3c-.5 0-1-.4-1.1-1l-1.8-7.7a3 3 0 1 1 5.9 0l-1.8 7.8c-.1.5-.6.9-1.2.9Zm0-10a.7.7 0 0 0-.6.7l.6 2.9.7-2.9a.7.7 0 0 0-.7-.8Zm-8.4 10c-.5 0-1-.4-1.1-1L81 33.7a3 3 0 1 1 5.8 0l-1.7 7.8c-.2.5-.6.9-1.2.9Zm0-10a.7.7 0 0 0-.6.7l.6 3 .7-2.9a.7.7 0 0 0-.7-.8Z"/><path d="M86.7 46h-5.4c-.6 0-1-.3-1.1-1a4.7 4.7 0 0 1 1-3.7A3.7 3.7 0 0 1 84 40c1 0 2 .5 2.8 1.4a4.7 4.7 0 0 1 1 3.8c0 .6-.5 1-1.1 1Zm-4.2-2.3h3a2.3 2.3 0 0 0-.5-.9c-.3-.3-.7-.5-1-.5-.3 0-.7.2-1 .6a2 2 0 0 0-.5.9Z"/></g><defs><clipPath id="a"><path fill="#fff" d="M0 0h100v100H0z"/></clipPath></defs></svg>