<svg width="100" height="100" fill="none" xmlns="http://www.w3.org/2000/svg"><g clip-path="url(#a)" fill="#1E2E36"><path d="M46.7 87.2h-30a4.5 4.5 0 0 1-4.4-4.5V71a4.5 4.5 0 0 1 4.5-4.5h29.9a4.5 4.5 0 0 1 4.5 4.5v11.7a4.5 4.5 0 0 1-4.5 4.5Zm-30-18.3c-1.1 0-2.1 1-2.1 2.2v11.6c0 1.2 1 2.1 2.2 2.1h29.9c1.2 0 2.1-1 2.1-2.1V71c0-1.2-1-2.2-2.1-2.2h-30Z"/><path d="M10.1 87.2H4.5A4.5 4.5 0 0 1 0 82.7V60.4A4.5 4.5 0 0 1 4.5 56h5.6a4.5 4.5 0 0 1 4.5 4.5v22.3a4.5 4.5 0 0 1-4.5 4.5Zm-5.6-29c-1.2 0-2.1 1-2.2 2.2v22.3c0 1.2 1 2.1 2.2 2.1h5.6c1.2 0 2.2-1 2.2-2.1V60.4c0-1.2-1-2.1-2.2-2.1H4.5Z"/><path d="M86.6 78H13.4a1.2 1.2 0 0 1 0-2.3h73.2a1.2 1.2 0 1 1 0 2.3Zm-40-9.1H16.9a4.5 4.5 0 0 1-4.5-4.5V46.5a4.5 4.5 0 0 1 4.5-4.5h29.9a4.5 4.5 0 0 1 4.5 4.5v17.9a4.5 4.5 0 0 1-4.5 4.5ZM16.9 44.4c-1.2 0-2.2 1-2.2 2.1v17.9c0 1.2 1 2.2 2.2 2.2h29.9c1.2 0 2.1-1 2.1-2.2V46.5c0-1.2-1-2.1-2.1-2.1h-30Z"/><path d="M83.2 68.9H53.3a4.5 4.5 0 0 1-4.5-4.5V46.5a4.5 4.5 0 0 1 4.5-4.5h30a4.5 4.5 0 0 1 4.4 4.5v17.9a4.5 4.5 0 0 1-4.5 4.5ZM53.3 44.4c-1.2 0-2.1 1-2.1 2.1v17.9c0 1.2 1 2.2 2.1 2.2h30c1.1 0 2.1-1 2.1-2.2V46.5c0-1.2-1-2.1-2.2-2.1H53.3Z"/><path d="M83.2 87.2H53.3a4.5 4.5 0 0 1-4.5-4.5V71a4.5 4.5 0 0 1 4.5-4.5h30a4.5 4.5 0 0 1 4.4 4.5v11.7a4.5 4.5 0 0 1-4.5 4.5ZM53.3 68.9c-1.2 0-2.1 1-2.1 2.2v11.6c0 1.2 1 2.1 2.1 2.1h30c1.1 0 2.1-1 2.1-2.1V71c0-1.2-1-2.2-2.2-2.2H53.3Z"/><path d="M95.5 87.2h-5.6a4.5 4.5 0 0 1-4.5-4.5V60.4a4.5 4.5 0 0 1 4.5-4.5h5.6a4.5 4.5 0 0 1 4.5 4.5v22.3a4.5 4.5 0 0 1-4.5 4.5Zm-5.6-29c-1.2 0-2.2 1-2.2 2.2v22.3c0 1.2 1 2.1 2.2 2.1h5.6c1.2 0 2.1-1 2.2-2.1V60.4c0-1.2-1-2.1-2.2-2.1h-5.6ZM52.7 69h-5.4a1.2 1.2 0 0 1 0-2.4h5.4a1.2 1.2 0 0 1 0 2.4Zm18.8-30.3h-43c-.6 0-1.1-.5-1.1-1.1v-28c0-.6.5-1.2 1.2-1.2h42.9c.6 0 1.1.6 1.1 1.2v27.9c0 .6-.5 1.1-1.1 1.1Zm-41.8-2.3h40.6V10.8H29.7v25.5Z"/><path d="M67.5 34.7h-35c-.7 0-1.2-.5-1.2-1.1v-20c0-.7.5-1.2 1.1-1.2h35.1c.7 0 1.2.5 1.2 1.1v20c0 .7-.5 1.2-1.2 1.2Zm-33.9-2.3h32.8V14.7H33.6v17.7Z"/><path d="M36.6 30.4a1.2 1.2 0 0 1-.8-2l6-6c.5-.4 1.3-.4 1.7 0l3.7 3.7a1.2 1.2 0 0 1-1.7 1.6L42.7 25l-5.2 5.2c-.2.2-.5.3-.8.3Z"/><path d="M63.4 30.4c-.4 0-.7-.1-.9-.4a12333.8 12333.8 0 0 1-9-9l-.8-.8-.7-.7-6.6 6.5a1.2 1.2 0 0 1-1.6-1.6L51 17c.3-.2.5-.3.9-.3.3 0 .6 0 .8.3l1.5 1.5.8.8a5200.5 5200.5 0 0 0 9 9 1.2 1.2 0 0 1-.8 2Z"/><path d="m59 26.1-.8-.3-4.8-4.9a1.2 1.2 0 0 1-.2-1.2 4.9 4.9 0 1 1 6.3 6.3l-.4.1Zm-3.3-6.2 3.6 3.6a2.5 2.5 0 1 0-3.6-3.6Zm37 71.7a3 3 0 0 1-3-2.4l-.7-3a1.2 1.2 0 0 1 1.1-1.4h5.2a1.2 1.2 0 0 1 1.1 1.5l-.7 3a3 3 0 0 1-3 2.2Zm-1-4.4.3 1.4a.7.7 0 0 0 1.4 0l.4-1.4h-2.2ZM7.2 91.5a3 3 0 0 1-3-2.3l-.7-3a1.2 1.2 0 0 1 1.1-1.4H10a1.2 1.2 0 0 1 1.1 1.5l-.7 3a3 3 0 0 1-3 2.2Zm-1-4.3.3 1.4a.7.7 0 0 0 1.4 0l.4-1.4H6.2Z"/></g><defs><clipPath id="a"><path fill="#fff" d="M0 0h100v100H0z"/></clipPath></defs></svg>