<svg width="125" height="75" fill="none" xmlns="http://www.w3.org/2000/svg"><path d="M31.83 29.49h56.55V21.5H31.83V8.04h56.55V.06h-60.9a3.68 3.68 0 0 0-3.68 3.66v39.3h8.03V29.48Z" fill="#44C697"/><path d="M97.58 0h-4.41v42.95h8.03V3.65A3.59 3.59 0 0 0 97.58 0Z" fill="#fff"/><path d="M107.58 27.96V49.3H17.42V27.96H4.6A4.58 4.58 0 0 0 0 32.53v12.13a4.58 4.58 0 0 0 4.6 4.57h2.94l1.3 14.99V75h3.3l3.87-10.78h92.98L112.86 75h3.3V64.22l1.3-15h2.94c2.58 0 4.6-2.06 4.6-4.56V32.53a4.58 4.58 0 0 0-4.6-4.57h-12.82Z" fill="#fff"/></svg>