<svg width="24" height="24" fill="none" xmlns="http://www.w3.org/2000/svg"><path fill-rule="evenodd" clip-rule="evenodd" d="M12 1.8A8.2 8.2 0 0 0 3.7 10c0 3.2 2.1 6.3 4.3 8.6a29.7 29.7 0 0 0 4 3.5 27 27 0 0 0 4-3.5c2.2-2.3 4.3-5.4 4.3-8.6A8.2 8.2 0 0 0 12 1.7ZM12 23l-.4.6a11.8 11.8 0 0 1-1.5-1c-.8-.7-2-1.7-3.1-3-2.3-2.4-4.8-5.8-4.8-9.6a9.7 9.7 0 0 1 19.6 0c0 3.8-2.5 7.2-4.8 9.6a31.2 31.2 0 0 1-4.6 4L12 23Zm0 0 .4.6c-.2.2-.6.2-.8 0l.4-.6Z" fill="#fff"/><path fill-rule="evenodd" clip-rule="evenodd" d="M12 7.8a2.3 2.3 0 1 0 0 4.5 2.3 2.3 0 0 0 0-4.6ZM8.2 10a3.7 3.7 0 1 1 7.5 0 3.7 3.7 0 0 1-7.4 0Z" fill="#fff"/></svg>