<svg width="30" height="31" fill="none" xmlns="http://www.w3.org/2000/svg"><g clip-path="url(#a)" fill-rule="evenodd" clip-rule="evenodd" fill="#1E2E36"><path d="M11.3 26.4a.3.3 0 1 0 0 .7.3.3 0 0 0 0-.7Zm-2.2.4a2.2 2.2 0 1 1 4.3 0 2.2 2.2 0 0 1-4.3 0Zm15.9-.4a.3.3 0 1 0 0 .7.3.3 0 0 0 0-.7Zm-2.2.4a2.2 2.2 0 1 1 4.4 0 2.2 2.2 0 0 1-4.4 0ZM.3 1.8c0-.6.4-1 1-1h5c.4 0 .8.3.9.8l1 5.5h20.5a1 1 0 0 1 1 1l-2 10.6a3.4 3.4 0 0 1-3.5 2.7h-12a3.4 3.4 0 0 1-3.5-2.7L6.6 8.2 5.5 2.6H1.2a1 1 0 0 1-.9-1Zm8.3 7.1 2 9.4a1.6 1.6 0 0 0 1.5 1.3h12.2a1.6 1.6 0 0 0 1.5-1.3L27.6 9h-19Z"/></g><defs><clipPath id="a"><path fill="#fff" transform="translate(0 .5)" d="M0 0h30v30H0z"/></clipPath></defs></svg>