<svg width="100" height="100" fill="none" xmlns="http://www.w3.org/2000/svg"><g clip-path="url(#a)" fill="#1E2E36"><path d="M82.8 100H17.2c-.6 0-1.1-.5-1.1-1.2V1.2c0-.7.5-1.2 1.1-1.2h65.6c.6 0 1.1.5 1.1 1.2v97.6c0 .7-.5 1.2-1.1 1.2Zm-64.4-2.3h63.2V2.3H18.4v95.4Z"/><path d="M50 71.5c-.6 0-1.2-.4-1.2-.8V.8c0-.4.6-.8 1.2-.8s1.2.4 1.2.8v69.9c0 .4-.6.8-1.2.8Zm0 28.5H17.2c-.6 0-1.1-.5-1.1-1.2V84.6c0-.7.5-1.2 1.1-1.2H50c.6 0 1.2.5 1.2 1.2v14.2c0 .7-.6 1.2-1.2 1.2Zm-31.6-2.3h30.4v-12H18.4v12Z"/><path d="M50 85.7H17.2c-.6 0-1.1-.5-1.1-1.1V70.3c0-.6.5-1.1 1.1-1.1H50c.6 0 1.2.5 1.2 1.1v14.3c0 .6-.6 1.1-1.2 1.1Zm-31.6-2.3h30.4v-12H18.4v12Z"/><path d="M35.3 78.6H32a1.2 1.2 0 0 1 0-2.3h3.3a1.2 1.2 0 0 1 0 2.3ZM43 38.4c-.6 0-1-.6-1-1.2v-2.9a1.2 1.2 0 1 1 2.3 0v2.9c0 .6-.6 1.2-1.2 1.2Zm14 14.2c-.7 0-1.3-.5-1.3-1.2v-2.8a1.2 1.2 0 1 1 2.4 0v2.8c0 .7-.5 1.2-1.2 1.2ZM35.3 92.9H32a1.2 1.2 0 1 1 0-2.4h3.3a1.2 1.2 0 0 1 0 2.4Z"/></g><defs><clipPath id="a"><path fill="#fff" d="M0 0h100v100H0z"/></clipPath></defs></svg>