<svg width="100" height="100" fill="none" xmlns="http://www.w3.org/2000/svg"><g clip-path="url(#a)" fill="#1E2E36"><path d="M93.5 42h-87c-.7 0-1.2-.5-1.2-1.1V15.4c0-.6.5-1.1 1.2-1.1h87c.7 0 1.2.5 1.2 1.1V41c0 .6-.5 1.2-1.2 1.2ZM7.6 39.8h84.8V16.6H7.6v23.1Z"/><path d="M93.5 67.5h-87c-.7 0-1.2-.5-1.2-1.1V40.9c0-.6.5-1.2 1.2-1.2h87c.7 0 1.2.6 1.2 1.2v25.5c0 .6-.5 1.1-1.2 1.1ZM7.6 65.2h84.8V42.1H7.6v23.1Z"/><path d="M93.5 93h-87c-.7 0-1.2-.5-1.2-1.2V66.4c0-.7.5-1.2 1.2-1.2h87c.7 0 1.2.5 1.2 1.2v25.4c0 .7-.5 1.2-1.2 1.2ZM7.6 90.7h84.8V67.5H7.6v23.2Zm44.6-61.4h-4.4a1.2 1.2 0 1 1 0-2.3h4.4a1.2 1.2 0 0 1 0 2.3Zm0 25.5h-4.4a1.2 1.2 0 1 1 0-2.3h4.4a1.2 1.2 0 0 1 0 2.3Z"/><path d="M52.2 80.3h-4.4a1.2 1.2 0 1 1 0-2.4h4.4a1.2 1.2 0 0 1 0 2.4Zm44.7-63.7H3a3.1 3.1 0 0 1-3-3.1V10c0-1.6 1.4-3 3.1-3H97c1.7 0 3.1 1.4 3.1 3.1v3.4c0 1.7-1.4 3.1-3.1 3.1ZM3 9.3c-.4 0-.8.4-.8.8v3.4c0 .4.4.8.8.8h94c.4 0 .8-.4.8-.8V10c0-.4-.4-.8-.8-.8H3Z"/></g><defs><clipPath id="a"><path fill="#fff" d="M0 0h100v100H0z"/></clipPath></defs></svg>