<svg aria-hidden="true" style="position:absolute;width:0;height:0;overflow:hidden" xmlns="http://www.w3.org/2000/svg"><defs><symbol id="icon-telegram" viewBox="0 0 32 32"><path d="m13.34 19.26 7.42-6.7c.32-.29-.08-.43-.5-.17l-9.16 5.77-3.96-1.23c-.85-.27-.86-.85.2-1.28l15.4-5.94c.7-.32 1.39.17 1.12 1.25l-2.62 12.37c-.18.88-.72 1.09-1.46.68l-4-2.95-1.93 1.88c-.22.21-.4.39-.79.39l.28-4.08z"/></symbol><symbol id="icon-facebook" viewBox="0 0 32 32"><path d="M17.66 25.4v-8.7h2.4l.32-3h-2.72l.01-1.5c0-.78.08-1.2 1.2-1.2h1.5V8h-2.4c-2.89 0-3.9 1.46-3.9 3.9v1.8h-1.8v3h1.8v8.7h3.6z"/></symbol><symbol id="icon-instagram" viewBox="0 0 32 32"><path d="M12.48 7.52c.91-.04 1.2-.06 3.52-.06s2.6.02 3.52.06a6.1 6.1 0 0 1 2.11.41l-.04-.01a4.41 4.41 0 0 1 2.49 2.47v.03c.22.53.36 1.16.4 2.06.04.91.06 1.2.06 3.52s-.02 2.6-.06 3.52a6.3 6.3 0 0 1-.42 2.12l.02-.05a4.41 4.41 0 0 1-2.47 2.49h-.03a5.9 5.9 0 0 1-2.06.4c-.91.04-1.2.06-3.52.06s-2.6-.02-3.52-.06a6.26 6.26 0 0 1-2.12-.42l.05.02a4.41 4.41 0 0 1-2.49-2.47v-.03a6.15 6.15 0 0 1-.4-2.05v-.01c-.04-.91-.06-1.2-.06-3.52s.02-2.6.06-3.52c.02-.75.16-1.46.41-2.12l-.01.05a4.41 4.41 0 0 1 2.47-2.49h.03a6.15 6.15 0 0 1 2.05-.4h.01zm3.24 1.49h-.48c-1.6 0-1.9 0-2.69.04-.57 0-1.11.11-1.61.3h.03c-.75.28-1.34.87-1.62 1.6v.02a4.62 4.62 0 0 0-.3 1.58 57.1 57.1 0 0 0-.04 3.49v-.05c0 2.28 0 2.56.04 3.46.01.57.12 1.11.31 1.61v-.03c.14.4.33.68.63.98.3.3.58.48.98.64.3.12.75.25 1.58.3.9.03 1.17.04 3.45.04s2.55 0 3.45-.05c.57 0 1.11-.11 1.61-.3h-.03a2.76 2.76 0 0 0 1.62-1.62c.12-.3.26-.74.3-1.57.03-.9.05-1.18.05-3.45 0-2.28-.02-2.55-.06-3.45a4.7 4.7 0 0 0-.3-1.62l.02.04a2.8 2.8 0 0 0-1.61-1.62h-.02a4.62 4.62 0 0 0-1.58-.3 57.22 57.22 0 0 0-3.49-.04h.05-.3zM11.62 16a4.38 4.38 0 0 1 8.76 0 4.38 4.38 0 0 1-8.76 0zm7.23 0v-.15a2.85 2.85 0 1 0-5.69.16V16a2.85 2.85 0 0 0 5.68.01V16zm.69-4.56c0-.56.45-1.02 1.01-1.02a1.02 1.02 0 1 1-1.02 1.03z"/></symbol><symbol id="icon-armchair" viewBox="0 0 32 32"><path d="M24.29 16.86H7.7c-.8 0-1.44-.64-1.44-1.44V5c0-.8.65-1.44 1.44-1.44h16.6c.8 0 1.44.65 1.44 1.44v10.4c0 .8-.65 1.44-1.44 1.44zM7.7 4.32c-.38 0-.7.32-.7.67v10.4c0 .39.32.7.7.7h16.6a.7.7 0 0 0 .7-.67V4.96a.68.68 0 0 0-.7-.67H7.7z"/><path d="M24.29 26.2H7.7c-.8 0-1.44-.64-1.44-1.43v-7.23c0-.8.65-1.44 1.44-1.44h16.6c.8 0 1.44.64 1.44 1.44v7.23c0 .8-.65 1.44-1.44 1.44zM7.7 16.84a.7.7 0 0 0-.7.7v7.24c0 .38.32.7.7.7h16.6a.7.7 0 0 0 .7-.7v-7.23a.68.68 0 0 0-.7-.68H7.7z"/><path d="M30.56 26.2H26.4a1.44 1.44 0 0 1-1.4-1.43V12.1c0-.8.64-1.44 1.43-1.44h4.13c.8 0 1.44.64 1.44 1.44v12.67c0 .8-.65 1.44-1.44 1.44zM26.4 11.43a.7.7 0 0 0-.67.68v12.67c0 .38.32.7.7.7h4.13c.38 0 .67-.32.7-.7V12.1a.7.7 0 0 0-.7-.68H26.4zM5.6 26.21H1.44c-.8 0-1.44-.65-1.44-1.44V12.1c0-.8.65-1.44 1.44-1.44H5.6c.78.01 1.4.65 1.4 1.44v12.67c0 .8-.64 1.44-1.43 1.44zM1.44 11.42a.7.7 0 0 0-.7.68v12.67c0 .38.32.7.7.7H5.6c.35 0 .67-.32.67-.7V12.1a.7.7 0 0 0-.7-.68H1.44z"/><path d="M25.34 21.54H6.66a.38.38 0 0 1 0-.77h18.68a.38.38 0 0 1 0 .77zm-21.82 6.9c-.64 0-1.16-.42-1.31-1v-.02l-.39-1.5v-.07c0-.2.15-.36.35-.38h2.66a.38.38 0 0 1 .35.45l-.35 1.5c-.15.6-.68 1.03-1.3 1.03h-.01zm-.86-2.23.25 1.02a.6.6 0 0 0 1.18 0l.26-1.02h-1.7zm25.82 2.24a1.35 1.35 0 0 1-1.28-1.02l-.42-1.51v-.07c0-.2.16-.36.35-.38h2.66a.38.38 0 0 1 .35.45l-.38 1.5a1.35 1.35 0 0 1-1.28 1.03zm-.83-2.24.25 1.02a.6.6 0 0 0 1.19 0l.25-1.02h-1.7z"/></symbol><symbol id="icon-arrow-left" viewBox="0 0 31 32"><path fill="none" stroke="#1e2e36" style="stroke:var(--color1, #1e2e36)" d="M15.5 31.01a15 15 0 0 0 0-30 15 15 0 0 0 0 30z"/><path d="M11.7 15.9c0-.2 0-.5.2-.6l5-5a.8.8 0 0 1 1 0c.4.3.4.8 0 1.1l-4.3 4.5 4.4 4.4c.3.4.3.9 0 1.2a.8.8 0 0 1-1.2 0l-4.9-5a.8.8 0 0 1-.2-.6z"/></symbol><symbol id="icon-arrow-right" viewBox="0 0 33 32"><path fill="#1e2e36" style="fill:var(--color1, #1e2e36)" d="M16.54 32a16 16 0 0 0 0-32 16 16 0 0 0 0 32z"/><path fill="#fff" style="fill:var(--color2, #fff)" d="M20.7 15.9a.87.87 0 0 1-.22.53l-5.22 5.44c-.32.32-.86.32-1.07 0a.85.85 0 0 1 0-1.28l4.48-4.7-4.59-4.8a.85.85 0 0 1 0-1.28.84.84 0 0 1 1.18 0l5.22 5.34a.85.85 0 0 1 .22.75z"/></symbol><symbol id="icon-bedroom" viewBox="0 0 32 32"><path fill="#44c697" style="fill:var(--color3, #44c697)" d="M27.1 10.82H4.9c-.2 0-.39-.2-.39-.39v-7.8c0-.2.2-.36.39-.36h22.2c.2 0 .39.16.39.39v7.77c0 .2-.2.39-.39.39zm-21.82-.77h21.44V3H5.28v7.04z"/><path fill="#44c697" style="fill:var(--color3, #44c697)" d="M25.38 10.82H6.62c-.19 0-.38-.2-.38-.39V4.35c0-.19.2-.35.38-.35h18.76c.22 0 .38.16.38.35v6.08c0 .2-.16.39-.38.39zM7 10.05h17.95V4.74H7.04v5.3z"/><path fill="#44c697" style="fill:var(--color3, #44c697)" d="M14.88 10.82H7.74a1.5 1.5 0 0 1-1.5-1.5V5.43c0-.8.67-1.47 1.5-1.47h7.14c.83 0 1.5.64 1.5 1.5v3.81c0 .83-.67 1.5-1.5 1.5zM7.74 4.74a.77.77 0 0 0-.73.76v3.78c0 .42.32.74.73.74h7.14c.42 0 .74-.32.74-.74V5.44a.74.74 0 0 0-.74-.74H7.74z"/><path fill="#44c697" style="fill:var(--color3, #44c697)" d="M24.26 10.82h-7.14a1.5 1.5 0 0 1-1.5-1.5V5.43c0-.8.67-1.47 1.5-1.47h7.14c.83 0 1.5.64 1.5 1.5v3.81c0 .83-.67 1.5-1.5 1.5zm-7.14-6.08a.77.77 0 0 0-.74.76v3.78c0 .42.32.74.74.74h7.14c.41 0 .73-.32.73-.74V5.44a.74.74 0 0 0-.73-.74h-7.14z"/><path fill="#44c697" style="fill:var(--color3, #44c697)" d="M27.36 29.76H4.64a1.5 1.5 0 0 1-1.5-1.5V11.58c0-.86.64-1.53 1.5-1.53h22.72c.83 0 1.5.67 1.5 1.5v16.67c0 .84-.64 1.5-1.5 1.5zM4.64 10.82h-.03c-.4 0-.74.3-.77.7v16.67c0 .42.32.77.77.77h22.72c.41 0 .77-.32.77-.77V11.55a.74.74 0 0 0-.77-.77H4.6zM27.52 3H4.48a1.38 1.38 0 0 1-1.34-1.34v-.33c0-.7.6-1.34 1.34-1.34h23.04c.74 0 1.34.6 1.34 1.38v.28c0 .74-.6 1.35-1.34 1.35zM4.48.77a.6.6 0 0 0-.6.6v.3c0 .31.28.6.63.6h23.01c.32 0 .6-.29.6-.64v-.25a.64.64 0 0 0-.63-.64H4.48z"/><path fill="#44c697" style="fill:var(--color3, #44c697)" d="M27.52 32H4.48a1.38 1.38 0 0 1-1.34-1.38v-.28c0-.74.6-1.35 1.34-1.35h23.04c.74 0 1.34.61 1.34 1.35v.32c0 .73-.6 1.34-1.34 1.34zM4.48 29.76a.6.6 0 0 0-.6.58v.32c0 .32.28.6.63.6h23.01c.32 0 .6-.28.6-.64v-.28a.63.63 0 0 0-.63-.61H4.48z"/></symbol><symbol id="icon-button-up" viewBox="0 0 32 32"><path fill="#44c697" style="fill:var(--color3, #44c697)" d="M26.81 14.27a10.81 10.81 0 1 1-21.62 0 10.81 10.81 0 0 1 21.62 0z"/><path fill="#fff" style="fill:var(--color2, #fff)" d="M16.3 10.64a.43.43 0 0 0-.6 0l-2.77 2.72a.43.43 0 0 0 .6.6l2.47-2.4L18.47 14a.4.4 0 0 0 .3.12.44.44 0 0 0 .3-.77l-2.77-2.72zm.13 7.18V10.9h-.86v6.92h.86z"/></symbol><symbol id="icon-calendar" viewBox="0 0 32 32"><path fill="#fff" style="fill:var(--color2, #fff)" d="M6.67 6.4c-.94 0-1.74.67-1.74 1.6v18.68c0 .93.8 1.73 1.74 1.73h18.67c.94 0 1.74-.8 1.74-1.73V8c0-.93-.8-1.73-1.74-1.73H6.67zM2.93 8a3.73 3.73 0 0 1 3.74-3.73h18.67A3.73 3.73 0 0 1 29.08 8v18.68a3.73 3.73 0 0 1-3.74 3.73H6.67a3.73 3.73 0 0 1-3.74-3.73V8z"/><path fill="#fff" style="fill:var(--color2, #fff)" d="M21.34 1.73c.54 0 1.07.4 1.07.94V8a1.07 1.07 0 0 1-2.14 0V2.67c0-.54.54-1.07 1.07-1.07zm-10.67 0c.53 0 1.07.4 1.07.94V8A1.07 1.07 0 0 1 9.6 8V2.67c0-.54.54-1.07 1.07-1.07zm-7.74 11.6c0-.53.54-1.06 1.07-1.06h24.01a1.07 1.07 0 0 1 0 2.13h-24c-.6 0-1.08-.47-1.08-1.06z"/></symbol><symbol id="icon-kitchen" viewBox="0 0 32 32"><path d="M21.7 29.15H10.3c-.22 0-.38-.16-.38-.35v-8.74c0-.19.2-.38.38-.38h11.4c.19 0 .38.2.38.38v8.74c0 .2-.16.35-.38.35zm-11.01-.73H21.3v-8H10.7v8z"/><path d="M21.7 30.75H10.3c-.22 0-.38-.16-.38-.35v-1.6c0-.22.2-.38.38-.38h11.4c.19 0 .38.16.38.38v1.6c0 .2-.16.35-.38.35zm-11.01-.73H21.3v-.87H10.7v.87zm11-9.6H10.3c-.22 0-.38-.13-.38-.32v-3.75c0-.22.2-.38.38-.38h11.4c.19 0 .38.16.38.38v3.68c0 .23-.16.39-.38.39zm-11-.74H21.3v-2.94H10.7v2.94z"/><path d="M16 19.42A1.22 1.22 0 1 1 16 17a1.22 1.22 0 1 1 0 2.43zm0-1.66a.46.46 0 0 0 0 .93.48.48 0 0 0 0-.96zm3.17 1.66a1.22 1.22 0 1 1 0-2.43 1.22 1.22 0 1 1 0 2.43zm0-1.66a.46.46 0 0 0 0 .93.48.48 0 0 0 0-.96zm-6.37 1.66a1.22 1.22 0 1 1 0-2.43 1.22 1.22 0 1 1 0 2.43zm0-1.66a.46.46 0 0 0 0 .93.48.48 0 0 0 0-.96zm6.72 4.86h-7a.9.9 0 0 1-.01-1.76h6.98l.17-.01a.9.9 0 1 1-.18 1.77h.01zm-6.98-.99c-.07 0-.12.06-.12.13s.05.13.12.13h6.98c.07 0 .13-.06.13-.13s-.06-.13-.13-.13h-7z"/><path d="M19.17 27.97H12.8c-.2 0-.35-.16-.35-.39v-5.3c0-.23.16-.4.35-.4h6.4c.2 0 .35.17.35.4v5.3c0 .23-.16.39-.35.39zm-5.95-.77h5.56v-4.54h-5.56v4.54zm.28-10.46c-.22 0-.38-.16-.38-.36v-.96a.38.38 0 0 1 .77 0v.96c0 .2-.2.36-.39.36zm1.76 0a.36.36 0 0 1-.35-.36v-.57h-.51a.38.38 0 0 1 0-.74h.86c.23 0 .39.16.39.35v.96c0 .2-.16.36-.39.36zm-3.52 0c-.22 0-.38-.16-.38-.36v-.96c0-.19.16-.35.35-.35h.9a.38.38 0 0 1 0 .74h-.51v.57c0 .2-.16.36-.39.36zm6.76 0c-.2 0-.39-.16-.39-.36v-.96a.38.38 0 0 1 .77 0v.96c0 .2-.16.36-.38.36zm-1.76 0c-.23 0-.39-.16-.39-.36v-.96c0-.19.16-.35.35-.35h.9a.38.38 0 0 1 0 .74h-.51v.57c0 .2-.16.36-.35.36zm3.52 0a.36.36 0 0 1-.36-.36v-.57h-.5a.38.38 0 0 1-.01-.74h.9c.2 0 .35.16.35.35v.96c0 .2-.16.36-.35.36zm3.26 1.37h-.67a.38.38 0 0 1 0-.73h.64a.38.38 0 0 1 0 .73z"/><path d="M24.64 30.75H21.7c-.23 0-.39-.16-.39-.35V16.38c0-.22.16-.38.39-.38h2.94c.22 0 .38.16.38.38V30.4c0 .2-.16.35-.38.35zm-2.56-.73h2.18V16.74h-2.18v13.28z"/><path d="M31.62 23.74h-6.98c-.2 0-.38-.16-.38-.35v-7.07c0-.2.19-.35.38-.35h6.98c.22 0 .38.16.38.38v7.01c0 .2-.16.35-.38.35zm-6.6-.7h6.24v-6.3h-6.24v6.3z"/><path d="M29.02 18.11h-1.79a.38.38 0 0 1 0-.73h1.8a.38.38 0 0 1 0 .73zm-22.78 0h-1.8a.38.38 0 0 1 0-.73h1.8a.38.38 0 0 1 0 .73zm25.38 12.64h-6.98c-.2 0-.38-.16-.38-.35v-7.04c0-.2.19-.35.38-.35h6.98c.22 0 .38.16.38.38v7.01c0 .2-.16.35-.38.35zm-6.6-.73h6.24v-6.28h-6.24v6.28z"/><path d="M29.02 25.12h-1.79a.38.38 0 0 1 0-.73h1.8a.38.38 0 0 1 0 .73zM5.34 30.75H.38c-.22 0-.38-.16-.38-.35V20.06c0-.19.16-.38.38-.38h4.96c.23 0 .39.2.39.38V30.4c0 .2-.2.35-.39.35zm-4.6-.73h4.22v-9.57H.74v9.57z"/><path d="M10.3 30.75H5.34c-.22 0-.38-.16-.38-.35V20.06c0-.19.16-.38.38-.38h4.96c.23 0 .39.2.39.38V30.4c0 .2-.16.35-.39.35zm-4.54-.73h4.16v-9.57H5.76v9.57z"/><path d="M6.53 26.24a.39.39 0 0 1-.39-.38v-1.28a.38.38 0 0 1 .77 0v1.28a.4.4 0 0 1-.38.38zm-2.37 0a.39.39 0 0 1-.38-.38v-1.28a.38.38 0 0 1 .76 0v1.28a.4.4 0 0 1-.38.38zm6.14-5.8H.38a.37.37 0 0 1-.38-.38v-3.68c0-.22.16-.38.38-.38h9.92c.23 0 .39.16.39.38v3.68c0 .23-.16.39-.39.39zm-9.56-.76h9.18v-2.94H.74v2.94zM21.28 8.9H10.72a.8.8 0 0 1-.8-.8V7c0-.43.36-.8.8-.8h10.56c.44 0 .8.37.8.8v1.14a.8.8 0 0 1-.8.8zM10.72 6.98a.03.03 0 0 0-.03.03V8.1l.03.03h10.56l.03-.03V7a.03.03 0 0 0-.03-.02H10.72z"/><path d="M20.48 6.98h-8.96a.8.8 0 0 1-.51-1.41l.32-.23a4.7 4.7 0 0 0 1.79-3.7V1.6c0-.2.16-.35.38-.35h5c.22 0 .38.16.38.35v.02c0 1.5.7 2.82 1.78 3.68l.01.01.32.23a.8.8 0 0 1-.48 1.44h-.03zm-6.62-5c-.11 1.6-.9 3-2.07 3.93l-.01.01-.3.22-.02.04c0 .02.01.03.03.03h9.01a.04.04 0 0 0 .01-.07l-.29-.22A5.44 5.44 0 0 1 18.15 2v-.02h-4.3zm16.6 6.92h-5.98a.96.96 0 0 1 0-1.9h5.98a.96.96 0 1 1 0 1.89zm-5.95-1.12c-.07.03-.11.1-.11.17s.04.15.11.18h5.95c.07-.03.12-.1.12-.18s-.05-.14-.11-.17h-5.99zM7.52 8.9H1.54A.96.96 0 0 1 1.53 7H7.5a.96.96 0 1 1 0 1.89zM1.54 7.74a.2.2 0 0 0 0 .39h5.95a.2.2 0 0 0 .27-.18.2.2 0 0 0-.27-.17H1.54z"/><path d="M6.91 7.78H5.38a.39.39 0 0 1-.39-.39V6.11c0-.22.2-.38.39-.38H6.9c.2 0 .35.16.35.35v1.28c0 .22-.16.38-.35.38zM5.76 7h.77v-.55h-.77v.58z"/><path d="M7.26 6.46H5.02a.38.38 0 0 1 0-.73h2.25a.38.38 0 0 1 0 .73zM3.65 7.74h-1.5c-.23 0-.39-.16-.39-.35V6.11c0-.22.16-.38.38-.38h1.5c.23 0 .4.16.4.35v1.28c0 .22-.17.38-.4.38zm-1.15-.7h.8V6.5h-.8v.54z"/><path d="M4.03 6.46H1.8a.38.38 0 0 1 0-.73h2.24a.38.38 0 1 1 0 .73zm2.88 0H5.38a.37.37 0 0 1-.39-.38V4.8c0-.2.2-.38.39-.38H6.9c.2 0 .35.19.35.38v1.28c0 .22-.16.38-.35.38zm-1.15-.7h.77v-.54h-.77v.54z"/><path d="M7.26 5.18H5.02a.38.38 0 0 1 0-.73h2.25a.38.38 0 0 1 0 .73zM3.65 6.46h-1.5c-.23 0-.39-.16-.39-.35V4.83c0-.22.16-.38.38-.38h1.5c.23 0 .4.16.4.35v1.28c0 .22-.17.38-.4.38zm-1.15-.7h.8v-.54h-.8v.54z"/><path d="M4.03 5.18H1.8a.38.38 0 0 1 0-.73h2.24a.38.38 0 1 1 0 .73zM27.5 7.74a2.43 2.43 0 0 1-2.04-3.69l-.01.01c.06-.12.2-.19.32-.19h3.46c.12 0 .25.07.32.2a2.43 2.43 0 0 1-2.05 3.71zm-1.57-3.13a1.66 1.66 0 1 0 3.04-.01h-3z"/><path d="M27.46 4.64a.39.39 0 0 1-.39-.38V1.82a.38.38 0 0 1 .74 0v2.44c0 .19-.16.38-.35.38z"/><path d="M27.46 4.64a.38.38 0 0 1-.3-.64l1.29-1.31a.39.39 0 0 1 .54.54l-1.28 1.28a.36.36 0 0 1-.25.1z"/><path d="M27.46 4.64c-.1 0-.2-.06-.3-.13L25.9 3.23a.38.38 0 1 1 .5-.54h.01l1.31 1.28a.38.38 0 0 1-.25.64zm-8 11.2h-1.83a1.89 1.89 0 0 1-1.85-1.89v-.89c0-.23.16-.39.35-.39h4.86c.2 0 .35.16.35.39v.9a1.89 1.89 0 0 1-1.85 1.85zm-2.92-2.4v.51c0 .62.5 1.12 1.12 1.12h1.86c.62 0 1.12-.5 1.12-1.12v-.51h-4.13z"/><path d="M21.7 14.08H21a.38.38 0 0 1-.01-.74h.7a.38.38 0 1 1 0 .74zm-5.7 0h-.74a.38.38 0 0 1 0-.74H16a.38.38 0 0 1 0 .74z"/><path d="M21 13.44h-4.88a.38.38 0 0 1-.31-.6c.54-.78 1.6-1.22 2.75-1.22s2.2.48 2.72 1.21a.39.39 0 0 1-.31.61h-.01zm-3.85-.77h2.82a3.15 3.15 0 0 0-2.84.01h.02z"/><path d="M18.11 12.38a.32.32 0 0 1-.25-.1 1.06 1.06 0 1 1 1.4 0 .38.38 0 1 1-.51-.54.32.32 0 1 0-.42 0 .38.38 0 0 1-.22.64zM4.45 16.74h-1.6a.36.36 0 0 1-.35-.36v-4.03c0-.22.16-.38.35-.38h1.6c.19 0 .38.16.38.38v4.03c0 .2-.19.36-.38.36zM3.23 16h.83v-3.3h-.83V16z"/><path d="M2.88 16.74h-1.6c-.2 0-.38-.16-.38-.36v-4.03c0-.22.19-.38.38-.38h1.6c.2 0 .35.16.35.38v4.03c0 .2-.16.36-.38.36zM1.63 16h.83v-3.3h-.8V16zm6.27.74h-.7c-.7 0-1.28-.58-1.28-1.28v-1.32c0-.22.13-.38.32-.38H8.8c.22 0 .38.16.38.38v1.32c0 .7-.57 1.28-1.28 1.28zM6.62 14.5v.96c0 .32.26.54.58.54h.7c.3 0 .55-.24.55-.54v-.96h-1.8z"/><path d="M9.06 14.53H6.08a.72.72 0 0 1-.7-.74v-.35c0-.38.32-.7.7-.7h2.98c.41 0 .7.32.7.7v.38c0 .42-.32.7-.7.74zm-2.95-.77h2.91v-.32H6.14v.32zm18.85 2.98h-1.92c-.22 0-.38-.16-.38-.36v-2.65c0-.2.16-.39.35-.39h1.92c.22 0 .38.2.38.39v2.65c0 .2-.16.36-.35.36zm-1.6-.74h1.18v-1.89h-1.18V16z"/><path d="M24.96 14.08h-1.92c-.22 0-.38-.13-.38-.32v-1.18c0-.2.16-.39.35-.39h1.92c.22 0 .38.2.38.39v1.18c0 .22-.16.38-.35.38zm-1.6-.7h1.18v-.39h-1.18v.42zm6.18 2.14c-.61 0-1.1-.6-1.1-1.34 0-.77.49-1.35 1.1-1.35.64 0 1.08.58 1.08 1.35 0 .73-.48 1.34-1.08 1.34zm0-1.92c-.16 0-.32.22-.32.58 0 .32.16.57.32.57s.35-.25.35-.57-.2-.61-.32-.61z"/><path d="M29.57 13.54a.37.37 0 0 1-.35-.32l-.58-2.47a.96.96 0 1 1 1.89 0l-.58 2.5c-.03.16-.19.29-.38.29zm0-3.2c-.11.01-.2.1-.2.22l.2.93.22-.93v-.03c0-.13-.1-.23-.22-.23zm-2.69 3.2a.37.37 0 0 1-.35-.32l-.61-2.44a.96.96 0 1 1 1.85 0l-.54 2.5c-.06.16-.19.29-.38.29zm0-3.2c-.1.01-.2.1-.2.22l.2.96.22-.93v-.03c0-.12-.1-.22-.22-.22z"/><path d="M27.74 14.72h-1.72c-.2 0-.32-.1-.36-.32a1.5 1.5 0 0 1 .32-1.19c.22-.25.54-.4.9-.41.32 0 .64.16.9.45a1.5 1.5 0 0 1 .31 1.22c0 .19-.15.31-.35.31zm-1.34-.74h.96a.74.74 0 0 0-.16-.29c-.1-.09-.22-.15-.32-.15s-.22.06-.32.19a.64.64 0 0 0-.16.28z"/></symbol><symbol id="icon-living-room" viewBox="0 0 32 32"><path d="M14.94 27.9h-9.6a1.44 1.44 0 0 1-1.4-1.44v-3.74c0-.8.64-1.44 1.44-1.44h9.56c.8 0 1.44.64 1.44 1.44v3.74c0 .8-.64 1.44-1.44 1.44zm-9.6-5.85c-.35 0-.67.32-.67.7v3.71c0 .39.32.68.7.68h9.57c.39 0 .68-.32.68-.68v-3.74a.7.7 0 0 0-.68-.7h-9.6z"/><path d="M3.23 27.9H1.44c-.8 0-1.44-.64-1.44-1.44v-7.13c.02-.78.66-1.41 1.44-1.41h1.8c.79 0 1.43.64 1.43 1.44v7.14c0 .8-.64 1.44-1.44 1.44zm-1.79-9.28c-.38 0-.67.32-.7.7v7.14c0 .39.32.68.7.68h1.8a.7.7 0 0 0 .7-.68v-7.13a.68.68 0 0 0-.7-.67h-1.8z"/><path d="M27.71 24.96H4.3a.38.38 0 0 1 0-.73h23.4a.38.38 0 1 1 0 .73zm-12.8-2.91h-9.5c-.8 0-1.44-.65-1.44-1.44v-5.73c0-.8.64-1.44 1.44-1.44h9.57c.8 0 1.44.64 1.44 1.44v5.73c0 .8-.65 1.44-1.44 1.44zm-9.5-7.84a.7.7 0 0 0-.7.67v5.73c0 .38.31.7.7.7h9.57c.38 0 .67-.32.67-.7v-5.73a.68.68 0 0 0-.67-.67h-9.6z"/><path d="M26.62 22.05h-9.56c-.8 0-1.44-.65-1.44-1.44v-5.73c0-.8.64-1.44 1.44-1.44h9.6c.78.02 1.4.66 1.4 1.44v5.73c0 .8-.64 1.44-1.44 1.44zm-9.56-7.84a.68.68 0 0 0-.68.67v5.73c0 .38.32.7.68.7h9.6c.35 0 .67-.32.67-.7v-5.73a.68.68 0 0 0-.7-.67h-9.57z"/><path d="M26.62 27.9h-9.56c-.8 0-1.44-.64-1.44-1.44v-3.74c0-.8.64-1.44 1.44-1.44h9.6c.78.02 1.4.66 1.4 1.44v3.74c0 .8-.64 1.44-1.44 1.44zm-9.56-5.85a.68.68 0 0 0-.68.7v3.71c0 .39.32.68.68.68h9.6a.7.7 0 0 0 .67-.68v-3.74a.7.7 0 0 0-.7-.7h-9.57z"/><path d="M30.56 27.9h-1.8c-.79 0-1.43-.64-1.43-1.44v-7.13c0-.8.64-1.44 1.44-1.44h1.79c.8 0 1.44.64 1.44 1.44v7.13c0 .8-.65 1.44-1.44 1.44zm-1.8-9.28a.7.7 0 0 0-.7.7v7.14c0 .39.32.68.7.68h1.8c.38 0 .67-.32.7-.68v-7.13a.68.68 0 0 0-.7-.67h-1.8zm-11.9 3.46h-1.72a.38.38 0 0 1 0-.77h1.72a.38.38 0 0 1 0 .77zm6.02-9.7H9.12a.36.36 0 0 1-.35-.35V3.07c0-.19.16-.38.38-.38h13.73c.2 0 .35.19.35.38V12c0 .2-.16.35-.35.35zM9.5 11.65h13v-8.2h-13v8.17z"/><path d="M21.6 11.1H10.4c-.22 0-.38-.16-.38-.35v-6.4c0-.22.16-.38.35-.38H21.6c.22 0 .38.16.38.35v6.4c0 .22-.16.38-.38.38zm-10.85-.73h10.5V4.7h-10.5v5.67z"/><path d="M11.71 9.73a.38.38 0 0 1-.25-.64l1.92-1.92c.16-.13.41-.13.54 0l1.18 1.18c.04.06.05.12.05.2a.38.38 0 0 1-.6.31h.01l-.9-.86L12 9.66a.36.36 0 0 1-.26.1z"/><path d="M20.29 9.73c-.13 0-.23-.03-.29-.13l-2.85-2.85-.03-.03-.48-.48-2.11 2.08a.38.38 0 0 1-.51-.51l2.3-2.37c.1-.07.16-.1.29-.1.1 0 .2 0 .26.1l.73.73 2.85 2.85.03.03a.38.38 0 0 1-.25.64z"/><path d="m18.88 8.35-.26-.1L17.1 6.7a.38.38 0 0 1-.07-.39 1.57 1.57 0 1 1 2.03 2.02h-.01l-.13.03zm-1.06-1.98 1.16 1.15a.81.81 0 1 0-1.16-1.15zM29.66 29.3h-.01a.96.96 0 0 1-.94-.76l-.23-.97v-.06c0-.2.15-.37.35-.38h1.67a.38.38 0 0 1 .35.48l-.23.96a.96.96 0 0 1-.92.7h-.04zm-.32-1.4.1.44a.22.22 0 1 0 .45 0l.13-.45h-.7zM2.3 29.27h-.02a.96.96 0 0 1-.93-.73l-.23-.97v-.06c0-.2.15-.37.35-.39H3.2a.38.38 0 0 1 .35.49l-.22.95a.96.96 0 0 1-.93.71h-.03zm-.32-1.38.1.45a.22.22 0 1 0 .45 0l.13-.45h-.68z"/></symbol><symbol id="icon-logo-footer" viewBox="0 0 53 32"><path fill="#44c697" style="fill:var(--color3, #44c697)" d="M13.58 12.58h24.13v-3.4H13.58V3.42h24.13V.03H11.73c-.87 0-1.57.7-1.57 1.56v16.76h3.42v-5.77z"/><path fill="#fff" style="fill:var(--color2, #fff)" d="M41.63 0h-1.88v18.32h3.43V1.53c0-.85-.69-1.53-1.53-1.53h-.02z"/><path fill="#fff" style="fill:var(--color2, #fff)" d="M45.9 11.93v9.1H7.43v-9.1H1.96C.87 11.93 0 12.8 0 13.88v5.18C0 20.13.88 21 1.95 21h1.27l.55 6.4V32h1.41l1.65-4.6H46.5l1.65 4.6h1.41v-4.6l.56-6.4h1.25c1.1 0 1.96-.89 1.96-1.95v-5.18c0-1.08-.87-1.95-1.95-1.95H45.9z"/></symbol><symbol id="icon-logo-glianec" viewBox="0 0 30 32"><path fill="#ffd001" style="fill:var(--color4, #ffd001)" d="M16.91 0A26.04 26.04 0 0 0 .05 15.82L0 16a26.04 26.04 0 0 0 16.73 15.96l.18.05c7.02-5.49 10.67-9.76 13.57-16a31.53 31.53 0 0 1-8.93-8.3l-.06-.09c-4.5 2-8.3 4.78-11.4 8.2l-.03.03c1.22 1.83 3.04 3.36 4.72 4.73a29.27 29.27 0 0 0 5.3-4.84l.04-.04a7.37 7.37 0 0 0 2.44 1.98 20.3 20.3 0 0 1-7.08 7.11l-.09.06a20.9 20.9 0 0 1-9.14-9.45c3.05-5.03 7.77-8.54 13.41-10.52-.91-1.53-2.13-3.05-2.74-4.88z"/></symbol><symbol id="icon-logo-header" viewBox="0 0 53 32"><path fill="#44c697" style="fill:var(--color3, #44c697)" d="M13.57 12.59h24.15V9.17H13.57V3.41h24.15V.01H11.69c-.85 0-1.54.72-1.54 1.57v16.77h3.42v-5.76z"/><path fill="#1e2e36" style="fill:var(--color1, #1e2e36)" d="M41.64 0h-1.87v18.35h3.4V1.58A1.55 1.55 0 0 0 41.65 0z"/><path fill="#1e2e36" style="fill:var(--color1, #1e2e36)" d="M45.9 11.95v9.08H7.43v-9.08H1.96c-1.1 0-1.96.85-1.96 1.92v5.2C0 20.14.85 21 1.96 21h1.28l.51 6.4V32h1.41l1.71-4.6h39.64l1.66 4.6h1.4v-4.6l.56-6.4h1.24c1.11 0 1.96-.86 1.96-1.93v-5.2c0-1.07-.85-1.92-1.96-1.92h-5.46z"/></symbol><symbol id="icon-map-pin" viewBox="0 0 32 32"><path fill="#fff" style="fill:var(--color2, #fff)" d="M16 2.4h-.13C9.83 2.4 4.94 7.3 4.94 13.34c0 4.27 2.8 8.4 5.73 11.47a39.83 39.83 0 0 0 5.23 4.59l.1.08a36.33 36.33 0 0 0 5.32-4.65l.02-.02c2.94-3.07 5.74-7.2 5.74-11.47v-.14A10.94 10.94 0 0 0 16 2.27zm0 28.28-.53.8c-.76-.43-1.42-.87-2.03-1.36l.03.02c-1.07-.93-2.67-2.26-4.13-4-3.07-3.2-6.4-7.73-6.4-12.8a13.07 13.07 0 1 1 26.14 0c0 5.07-3.34 9.6-6.4 12.8a41.89 41.89 0 0 1-6.02 5.25l-.12.09-.54-.8zm0 0 .54.8a.81.81 0 0 1-1.07 0l.54-.8z"/><path fill="#fff" style="fill:var(--color2, #fff)" d="M16 10.4a3.07 3.07 0 1 0 .02 6h-.01a3.07 3.07 0 1 0 0-6.13zm-5.06 2.94a5 5 0 0 1 10 0 4.93 4.93 0 1 1-9.87 0z"/></symbol><symbol id="icon-shopping-cart" viewBox="0 0 31 32"><path d="M11.66 27.26a.36.36 0 1 0 0 .72.36.36 0 1 0 0-.72zm-2.27.41a2.27 2.27 0 1 1 4.44.02v-.02a2.28 2.28 0 0 1-4.44.02v-.02zm16.42-.41a.36.36 0 1 0 0 .72.36.36 0 1 0 0-.72zm-2.27.41a2.27 2.27 0 0 1 4.54 0 2.27 2.27 0 0 1-4.54 0zM.3 1.86C.3 1.24.72.83 1.34.83H6.5c.41 0 .83.3.93.82l1.03 5.68h21.17c.57 0 1.03.46 1.03 1.03l-2.07 10.95a3.52 3.52 0 0 1-3.62 2.78h.01-12.57a3.51 3.51 0 0 1-3.43-2.76v-.02L6.8 8.47 5.67 2.68H1.23A1.02 1.02 0 0 1 .3 1.66zm8.57 7.33 2.06 9.7c.15.75.78 1.31 1.55 1.35h12.6c.77-.04 1.4-.6 1.54-1.34l1.86-9.6H8.88z"/></symbol><symbol id="icon-smartphone" viewBox="0 0 32 32"><path stroke-linejoin="round" stroke-linecap="round" stroke-width="2" d="M22.68 2.67H9.34a2.67 2.67 0 0 0-2.67 2.67v21.34c0 1.46 1.2 2.67 2.67 2.67h13.34c1.47 0 2.66-1.2 2.66-2.67V5.34c0-1.48-1.2-2.67-2.67-2.67zM16 24"/></symbol><symbol id="icon-wardrobe-1" viewBox="0 0 32 32"><path d="M29.92 13.44H2.08c-.22 0-.38-.16-.38-.35V4.93c0-.2.16-.35.38-.35h27.84c.22 0 .38.16.38.35v8.19c0 .2-.16.38-.38.38zm-27.49-.7h27.14V5.3H2.43v7.4z"/><path d="M29.92 21.6H2.08c-.22 0-.38-.16-.38-.35v-8.16c0-.2.16-.39.38-.39h27.84c.22 0 .38.2.38.39v8.16c0 .19-.16.35-.38.35zm-27.49-.74h27.14v-7.39H2.43v7.4z"/><path d="M29.92 29.76H2.08a.37.37 0 0 1-.38-.38v-8.13c0-.23.16-.39.38-.39h27.84c.22 0 .38.16.38.39v8.13c0 .22-.16.38-.38.38zm-27.49-.74h27.14V21.6H2.43v7.42zM16.7 9.38h-1.4a.38.38 0 1 1 0-.74h1.4a.38.38 0 0 1 0 .73zm0 8.16h-1.4a.38.38 0 1 1 0-.74h1.4a.38.38 0 0 1 0 .73z"/><path d="M16.7 25.7h-1.4a.38.38 0 0 1 0-.77h1.4a.38.38 0 0 1 0 .77zM31 5.3H.97A1 1 0 0 1 0 4.32V3.2a1 1 0 0 1 1-.96h30.04a1 1 0 0 1 1 1v1.08a1 1 0 0 1-1 1zM.97 2.98a.28.28 0 0 0-.26.25v1.09c0 .13.13.26.26.26h30.08c.13 0 .26-.13.26-.26V3.2a.28.28 0 0 0-.26-.26H.96z"/></symbol><symbol id="icon-wardrobe-2" viewBox="0 0 32 32"><path d="M26.5 32h-21c-.19 0-.35-.16-.35-.38V.38c0-.22.16-.38.35-.38h21c.19 0 .35.16.35.38v31.24c0 .22-.16.38-.35.38zm-20.61-.74H26.1V.74H5.9v30.52z"/><path d="M16 22.88c-.2 0-.38-.13-.38-.26V.26c0-.13.19-.26.38-.26s.38.13.38.26v22.36c0 .13-.19.26-.38.26zM16 32H5.5c-.19 0-.35-.16-.35-.38v-4.55c0-.22.16-.38.35-.38H16c.2 0 .38.16.38.38v4.55c0 .22-.19.38-.38.38zm-10.11-.74h9.73v-3.84H5.89v3.84z"/><path d="M16 27.42H5.5a.36.36 0 0 1-.35-.35V22.5c0-.2.16-.36.35-.36H16c.2 0 .38.16.38.36v4.57c0 .2-.19.35-.38.35zM5.89 26.7h9.73v-3.84H5.89v3.84z"/><path d="M11.3 25.15h-1.06a.38.38 0 0 1 0-.73h1.06a.38.38 0 0 1 0 .73zm2.46-12.86c-.2 0-.32-.2-.32-.39v-.92a.38.38 0 1 1 .74 0v.92c0 .2-.2.39-.39.39zm4.48 4.54c-.22 0-.42-.16-.42-.38v-.9a.38.38 0 0 1 .77 0v.9c0 .22-.16.38-.38.38zm-6.94 12.9h-1.06a.38.38 0 0 1 0-.77h1.06a.38.38 0 0 1 0 .77z"/></symbol></defs></svg>